<?xml version="1.0" encoding="UTF-8" standalone="yes"?><svg fill="none" xmlns="http://www.w3.org/2000/svg" xmlns:xlink="http://www.w3.org/1999/xlink" version="1.2" baseProfile="tiny" x="0" y="0" width="256" height="256" viewBox="0 0 256 256"><defs/><g id="单面性_10741058264.风车" clip-path="url(#clip0_1_21599)"><g id="Group"><g id="Group_2"><g id="Group_3"><path id="Vector" fill="#333333" fill-opacity="1" d="M 159.385 163.195 L 158.845 163.585 L 158.245 164.126 L 157.465 164.786 L 156.565 165.716 L 155.514 166.766 L 154.404 168.087 L 153.234 169.557 L 143.362 165.116 L 143.633 164.066 L 143.872 162.986 L 143.963 161.875 L 143.993 160.765 L 143.902 159.415 L 143.693 158.185 L 143.422 157.015 L 143.032 155.784 L 142.582 154.644 L 142.012 153.624 L 141.352 152.574 L 140.602 151.644 L 139.851 150.714 L 138.892 149.934 L 137.991 149.154 L 137.001 148.434 L 135.921 147.863 L 134.781 147.323 L 133.641 146.903 L 132.38 146.573 L 133.851 135.832 L 134.931 135.651 L 135.981 135.471 L 137.121 135.261 L 138.201 134.991 L 139.342 134.631 L 140.482 134.301 L 141.592 133.911 L 142.762 133.461 L 135.591 19.5931 L 135.261 19.4731 L 134.511 19.2631 L 133.341 18.963 L 132.591 18.813 L 131.811 18.723 L 130.94 18.603 L 130.07 18.543 L 129.11 18.543 L 128.12 18.693 L 127.16 18.813 L 126.139 19.053 L 125.09 19.4131 L 124.639 19.6231 L 124.129 19.8932 L 115.338 133.971 L 115.968 134.181 L 116.718 134.421 L 117.709 134.751 L 118.968 135.051 L 120.439 135.381 L 122.149 135.711 L 124.069 135.951 L 125.06 146.483 L 123.799 146.873 L 122.599 147.263 L 121.489 147.863 L 120.379 148.523 L 119.329 149.214 L 118.369 150.024 L 117.468 150.893 L 116.688 151.794 L 115.878 152.844 L 115.278 153.924 L 114.738 155.034 L 114.228 156.205 L 113.867 157.405 L 113.598 158.695 L 113.448 159.925 L 113.388 160.585 L 113.388 161.305 L 113.448 162.235 L 113.598 163.256 L 113.778 164.156 L 114.018 165.055 L 103.816 169.257 L 103.156 168.417 L 102.466 167.606 L 101.656 166.766 L 100.935 166.016 L 100.095 165.206 L 99.2256 164.396 L 98.2651 163.616 L 97.3054 162.896 L 0 225.906 L 0.0600095 226.205 L 0.270042 226.925 L 0.540084 228.156 L 0.810128 228.815 L 1.08017 229.535 L 1.41022 230.286 L 1.89029 231.096 L 2.34037 231.876 L 2.88045 232.656 L 3.54055 233.407 L 4.23066 234.157 L 5.07079 234.817 L 5.52086 235.116 L 5.97093 235.387 L 111.437 185.849 L 111.378 185.219 L 111.197 184.439 L 110.958 183.449 L 110.628 182.249 L 110.207 180.778 L 109.637 179.218 L 108.887 177.478 L 117.709 171.326 L 118.248 171.867 L 118.819 172.377 L 119.418 172.857 L 120.079 173.277 L 120.709 173.727 L 121.369 174.057 L 122.059 174.477 L 122.779 174.778 L 123.529 175.047 L 124.219 175.257 L 124.999 175.468 L 125.81 175.677 L 126.59 175.797 L 127.34 175.888 L 128.15 175.918 L 128.99 175.978 L 129.77 175.918 L 130.55 175.888 L 131.361 175.737 L 132.05 175.558 L 132.8 175.437 L 133.52 175.198 L 134.241 174.927 L 134.931 174.657 L 135.621 174.358 L 136.251 174.027 L 136.851 173.637 L 137.481 173.247 L 138.082 172.857 L 138.681 172.377 L 139.192 171.867 L 139.732 171.417 L 148.433 177.928 L 148.073 178.888 L 147.713 179.908 L 147.353 180.988 L 147.023 182.038 L 146.723 183.148 L 146.483 184.259 L 146.243 185.429 L 146.122 186.629 L 250.569 237.457 L 250.779 237.277 L 251.409 236.767 L 252.249 235.897 L 252.729 235.357 L 253.269 234.726 L 253.72 234.067 L 254.23 233.317 L 254.739 232.537 L 255.099 231.666 L 255.43 230.766 L 255.73 229.746 L 255.94 228.755 L 255.97 228.216 L 256 227.675 L 159.385 163.195 Z"/></g></g></g></g><defs><clipPath id="clip0_1_21599" clipPathUnits="userSpaceOnUse"><rect fill="#ffffff" x="0" y="0" width="256" height="256"/></clipPath></defs></svg>
