<?xml version="1.0" encoding="UTF-8" standalone="yes"?><svg id="图层_1" xmlns="http://www.w3.org/2000/svg" xmlns:xlink="http://www.w3.org/1999/xlink" version="1.2" baseProfile="tiny" x="0" y="0" width="256" height="256" viewBox="0 0 256 256"><defs/><defs><clipPath id="clip-path" clipPathUnits="userSpaceOnUse"><rect class="cls-1" fill="none" x="0" y="0" width="256" height="256"/></clipPath></defs><g class="cls-2" clip-path="url(#clip-path)"><g><path fill="#333333" fill-opacity="1" d="M 128 65 C 131.634 65 134.58 67.946 134.58 71.58 C 134.58 75.214 131.634 78.16 128 78.16 C 124.366 78.16 121.42 75.214 121.42 71.58 C 121.426 67.9482 124.368 65.0055 128 65 M 128 94.26 C 140.527 94.2655 150.686 84.1138 150.69 71.5867 C 150.694 59.0596 140.54 48.9018 128.013 48.9 C 115.486 48.8982 105.33 59.0529 105.33 71.58 C 105.347 84.0951 115.485 94.238 128 94.26"/><path fill="#333333" fill-opacity="1" d="M 128.54 239.83 C 128.35 239.83 128.17 239.77 127.97 239.77 C 122.781 239.763 117.598 239.395 112.46 238.67 C 87.28 232.43 69.7 211.77 69.7 188.32 C 69.7 159.48 95.85 136 128 136 C 169 136 202.35 105.32 202.35 67.6 C 202.333 57.5086 199.91 47.5668 195.28 38.6 C 233.637 67.4615 249.294 117.584 234.185 163.147 C 219.076 208.71 176.572 239.546 128.57 239.77 L 128.54 239.83 M 16.1 128 C 16.1646 66.4749 65.8462 16.521 127.37 16.12 C 127.57 16.12 127.77 16.17 127.97 16.17 C 133.156 16.1822 138.335 16.5498 143.47 17.27 C 168.66 23.52 186.22 44.16 186.22 67.62 C 186.22 96.46 160.09 119.93 127.97 119.93 C 86.97 119.93 53.61 150.61 53.61 188.32 C 53.6327 198.409 56.0525 208.349 60.67 217.32 C 32.6084 196.2 16.1023 163.121 16.1 128 M 128 0 C 57.42 0 0 57.41 0 128 C 1.73601 197.424 58.5141 252.8 127.96 252.8 C 197.406 252.8 254.184 197.424 255.92 128 C 255.93 57.41 198.52 0 128 0"/><path fill="#333333" fill-opacity="1" d="M 128 194.91 C 124.367 194.91 121.422 191.966 121.42 188.333 C 121.418 184.701 124.361 181.754 127.993 181.75 C 131.626 181.746 134.574 184.687 134.58 188.32 C 134.58 191.956 131.636 194.904 128 194.91 M 128 165.65 C 115.473 165.65 105.318 175.806 105.32 188.333 C 105.322 200.86 115.48 211.014 128.007 211.01 C 140.534 211.006 150.686 200.847 150.68 188.32 C 150.663 175.803 140.517 165.661 128 165.65"/></g></g></svg>
