<?xml version="1.0" encoding="UTF-8" standalone="yes"?><svg id="_图层_1" xmlns="http://www.w3.org/2000/svg" xmlns:xlink="http://www.w3.org/1999/xlink" version="1.2" baseProfile="tiny" x="0" y="0" width="256" height="256" viewBox="0 0 256 256"><defs/><defs><clipPath id="clippath" clipPathUnits="userSpaceOnUse"><rect class="cls-1" fill="none" stroke-width="0" x="0" y="0" width="256" height="256"/></clipPath></defs><g class="cls-3" clip-path="url(#clippath)"><g id="_å_é_æ__10758994150.å_ç_"><g id="Group"><g id="Group_2"><g id="Group_3"><path id="Vector" fill="#333333" fill-opacity="1" stroke-width="0" d="M 112.63 6.08 C 108.48 10.23 106.54 15.48 106.54 21.33 L 106.54 213.32 L 21.48 213.32 C 15.67 213.32 10.69 215.26 6.5 219.41 C 2.35 223.56 0.14 228.81 0.14 234.66 C 0.14 240.51 2.35 245.72 6.5 249.91 C 10.65 254.06 15.63 256 21.48 256 L 234.53 256 C 240.34 256 245.59 254.06 249.78 249.91 C 253.93 245.76 255.86 240.51 255.86 234.66 C 255.86 228.81 253.92 223.56 249.78 219.41 C 245.63 215.26 240.38 213.32 234.53 213.32 L 149.18 213.32 L 149.18 21.34 C 149.18 15.53 147.24 10.24 143.09 6.09 C 138.95 1.94 133.69 0 127.84 0 C 121.99 0 116.78 1.94 112.63 6.08 Z"/></g></g></g></g></g></svg>
